#!OML:ASF E:\Steps\Project 1\Capture day 1\Session 2\Subject.ASF
:FULLY-SPECIFIED
:DEGREES
16
root -1.23149 16.2908 21.1732 -153.781 -1.29308 179.89
lowerback -27.8838 -2.03268 -5.62749
upperback -1.94878 -1.6228 0.556676
thorax 13.5166 -1.36661 3.20637
lowerneck -1.70444 -5.16194 -0.6635
upperneck 17.8378 -6.50704 3.69858
head 5.80955 -2.51506 0.955862
rclavicle 3.27995e-015 8.34896e-015
rhumerus -40.8925 -16.1736 -79.2474
rradius 34.9971
rwrist -4.94013
rhand -7.46471 -56.7323
rfingers 7.12502
rthumb 18.4238 -85.8798
lclavicle 3.27995e-015 8.34896e-015
lhumerus -30.6604 3.5156 82.7352
lradius 23.5299
lwrist -2.34699
lhand -20.747 -12.5726
lfingers 7.12502
lthumb 5.61861 17.3329
rfemur -25.1153 7.19023 20.8143
rtibia 7.74615
rfoot -17.2629 -0.85874
rtoes -12.6733
lfemur -24.4179 -7.1212 -20.7649
ltibia 7.93177
lfoot -7.74573 0.38406
ltoes -40.1465
17
root -1.23936 16.2916 21.1777 -153.773 -1.32043 179.846
lowerback -27.8372 -2.04091 -5.54869
upperback -1.93402 -1.65291 0.527154
thorax 13.5095 -1.37276 3.11552
lowerneck -1.9553 -5.10074 -0.609951
upperneck 18.1575 -6.40719 3.59118
head 5.94547 -2.4535 0.912147
rclavicle -1.86858e-014 1.39149e-014
rhumerus -40.851 -16.2793 -79.2171
rradius 34.9518
rwrist -4.85185
rhand -7.39225 -56.7647
rfingers 7.12502
rthumb 18.4935 -85.9056
lclavicle -1.86858e-014 1.39149e-014
lhumerus -30.6248 3.57146 82.7154
lradius 23.494
lwrist -2.44925
lhand -20.8904 -12.6085
lfingers 7.12502
lthumb 5.48013 17.3006
rfemur -25.1186 6.89015 20.8273
rtibia 7.74048
rfoot -17.2614 -0.624269
rtoes -13.1227
lfemur -24.4283 -7.16146 -20.8691
ltibia 7.92782
lfoot -7.74824 0.369188
ltoes -40.1881
18
root -1.23888 16.2928 21.176 -153.699 -1.13656 179.664
lowerback -27.9592 -2.07751 -5.78041
upperback -1.91224 -1.61594 0.477388
thorax 13.6009 -1.37214 3.20372
lowerneck -1.95412 -5.14687 -0.532876
upperneck 18.1336 -6.46233 3.47362
head 5.93261 -2.48654 0.85931
rclavicle 1.42131e-014 1.86858e-014
rhumerus -40.8479 -16.3257 -79.2166
rradius 35.0261
rwrist -4.73537
rhand -7.30451 -56.9354
rfingers 7.12502
rthumb 18.5779 -86.0682
lclavicle 1.42131e-014 1.86858e-014
lhumerus -30.5615 3.63911 82.715
lradius 23.4531
lwrist -2.57051
lhand -21.13 -12.589
lfingers 7.12502
lthumb 5.24885 17.3259
rfemur -25.2072 6.87459 20.5643
rtibia 7.70694
rfoot -17.2043 -0.566826
rtoes -13.4817
lfemur -24.4895 -7.23106 -21.0871
ltibia 7.92232
lfoot -7.76691 0.511107
ltoes -40.4965
19
root -1.24442 16.2921 21.1797 -153.682 -1.15572 179.64
lowerback -27.9239 -2.07649 -5.74182
upperback -1.90921 -1.6266 0.47396
thorax 13.5857 -1.37337 3.17388
lowerneck -1.92447 -5.21054 -0.473661
upperneck 18.1051 -6.53913 3.36618
head 5.91473 -2.53017 0.812153
rclavicle 5.46658e-016 1.15295e-014
rhumerus -40.8918 -16.2934 -79.2128
rradius 35.1408
rwrist -4.77894
rhand -7.34251 -57.1535
rfingers 7.12502
rthumb 18.5414 -86.2898
lclavicle 5.46658e-016 1.15295e-014
lhumerus -30.5268 3.73632 82.695
lradius 23.457
lwrist -2.84329
lhand -21.1634 -12.3465
lfingers 7.12502
lthumb 5.21657 17.5693
rfemur -25.1816 6.59517 20.5939
rtibia 7.5994
rfoot -17.1262 -0.28412
rtoes -13.3357
lfemur -24.5259 -7.33492 -21.1444
ltibia 7.95382
lfoot -7.72004 0.516566
ltoes -40.3682
20
root -1.23993 16.29 21.1774 -153.687 -1.01578 179.584
lowerback -27.9926 -2.07807 -5.87753
upperback -1.87222 -1.57491 0.450427
thorax 13.6637 -1.35925 3.24398
lowerneck -1.93646 -5.23636 -0.406409
upperneck 18.1044 -6.5699 3.29016
head 5.91239 -2.54692 0.775169
rclavicle -1.98785e-015 1.98785e-014
rhumerus -40.8832 -16.2649 -79.2461
rradius 35.1632
rwrist -4.92885
rhand -7.44579 -57.2743
rfingers 7.12502
rthumb 18.442 -86.4201
lclavicle -1.98785e-015 1.98785e-014
lhumerus -30.5002 3.80473 82.6242
lradius 23.4568
lwrist -3.01723
lhand -21.7537 -11.5372
lfingers 7.12502
lthumb 4.64661 18.3918
rfemur -25.1811 6.8778 20.425
rtibia 7.54553
rfoot -17.088 -0.382338
rtoes -12.844
lfemur -24.4914 -7.28925 -21.211
ltibia 7.92443
lfoot -7.73742 0.587981
ltoes -40.6919
21
root -1.24333 16.2879 21.1793 -153.685 -1.04223 179.608
lowerback -28.0032 -2.06645 -5.77362
upperback -1.84878 -1.58407 0.424907
thorax 13.6951 -1.35564 3.15038
lowerneck -1.92989 -5.26044 -0.375177
upperneck 18.0901 -6.60389 3.27173
head 5.90581 -2.56397 0.762474
rclavicle 2.5842e-015 -3.18055e-015
rhumerus -40.8447 -16.3519 -79.2434
rradius 35.1012
rwrist -4.86286
rhand -7.36434 -57.0696
rfingers 7.12502
rthumb 18.5204 -86.2079
lclavicle 2.5842e-015 -3.18055e-015
lhumerus -30.4649 3.7167 82.6238
lradius 23.4378
lwrist -2.84822
lhand -20.6918 -11.9884
lfingers 7.12502
lthumb 5.67194 17.9157
rfemur -25.1806 6.6458 20.5127
rtibia 7.55728
rfoot -17.0733 -0.144767
rtoes -12.5951
lfemur -24.4796 -7.32814 -21.207
ltibia 7.92478
lfoot -7.77175 0.617517
ltoes -40.848
22
root -1.24133 16.2887 21.1811 -153.687 -0.974899 179.619
lowerback -27.9401 -2.058 -5.8014
upperback -1.86857 -1.57054 0.424115
thorax 13.6369 -1.35021 3.17195
lowerneck -1.90067 -5.26574 -0.409816
upperneck 18.0956 -6.61197 3.3114
head 5.90524 -2.56654 0.780857
rclavicle 1.88845e-015 -1.19271e-014
rhumerus -40.8399 -16.3643 -79.2262
rradius 35.0212
rwrist -4.68369
rhand -7.23037 -56.999
rfingers 7.12502
rthumb 18.6492 -86.1251
lclavicle 1.88845e-015 -1.19271e-014
lhumerus -30.499 3.73355 82.5927
lradius 23.3889
lwrist -2.94292
lhand -20.5841 -11.9602
lfingers 7.12502
lthumb 5.77593 17.9411
rfemur -25.2139 6.65904 20.5143
rtibia 7.57452
rfoot -17.045 -0.166842
rtoes -12.9511
lfemur -24.4858 -7.3898 -21.1503
ltibia 7.89543
lfoot -7.72627 0.756872
ltoes -40.4072
